PathFileType	4	(X/Y/Z)	D:\TRACE\v60_Jaco2_6-2-23\BothDRS_Motion3_7-v60.trc
DataRate	CameraRate	NumFrames	NumMarkers	Units	OrigDataRate	OrigDataStartFrame	OrigNumFrames
100.00	100.00	      24	9	mm	100.00	5251	      7000
Frame#	Time	front left toe			Front right toe			aft left toe			aft right toe			Arm			FL body			FR body			AL Body			AR Body			
		X1	Y1	Z1	X2	Y2	Z2	X3	Y3	Z3	X4	Y4	Z4	X5	Y5	Z5	X6	Y6	Z6	X7	Y7	Z7	X8	Y8	Z8	X9	Y9	Z9	

5251	52.500	-125.08002	76.50822	-115.22463	247.06592	2.19927	-141.51660	-104.98595	44.05470	494.87399	269.81821	114.25905	491.08475	61.01468	1110.90100	-444.73419	-20.32548	493.77155	-307.13828	138.52357	489.79224	-312.95673	21.97977	590.63696	631.49078	172.82555	576.50806	625.20563	
5252	52.510	-126.44164	66.53738	-113.23969	247.59875	2.24642	-141.45137	-104.76743	43.80829	494.93399	268.57733	102.44669	493.62384	61.50477	1110.97400	-443.91483	-19.74619	493.84259	-307.16504	139.21614	490.06003	-312.37418	21.60339	590.26434	631.84717	172.74104	576.26489	625.80640	
5253	52.520	-127.67506	56.40989	-110.90198	248.50340	2.47995	-141.13992	-104.49235	43.51147	494.94458	267.71710	90.89237	496.18814	62.16290	1111.22107	-443.36816	-19.12366	493.89301	-307.02139	139.79050	490.20721	-312.09872	21.18842	589.93652	632.21674	172.50966	576.06067	626.19043	
5254	52.530	-128.56541	45.85193	-109.16502	249.27733	2.71812	-140.91751	-103.97988	43.10474	494.83435	267.08075	81.13458	497.07312	63.03945	1111.39990	-442.86844	-18.77586	493.99521	-306.57742	140.15398	490.42761	-311.84918	21.07461	589.68866	632.34509	173.47600	576.25195	627.58673	
5255	52.540	-128.98315	36.11806	-108.36844	248.72688	2.14742	-141.55093	-103.68686	43.03094	494.84521	266.34018	71.03143	497.67841	64.41377	1111.51904	-442.03372	-18.31625	494.21802	-306.27374	140.51563	490.49612	-311.39572	20.63468	589.45178	632.83746	173.24995	576.23566	629.04407	
5256	52.550	-129.62495	27.74881	-108.97675	249.45322	2.77022	-140.88016	-103.37297	42.87445	494.86426	265.41309	62.15689	496.70712	65.01080	1111.89136	-441.67007	-17.83308	494.46362	-306.01889	140.78085	490.48370	-311.11508	20.72138	589.29346	633.15692	172.86349	575.96478	629.47321	
5257	52.560	-129.67812	19.38904	-109.87419	249.38553	2.70728	-140.91940	-103.11868	42.68751	494.88821	264.28479	53.32167	495.37430	65.90313	1112.33093	-441.27115	-17.56273	494.79013	-305.90891	141.12871	490.59079	-310.76633	20.24933	589.06085	633.32361	173.18956	575.48071	629.81622	
5258	52.570	-129.67935	12.28295	-111.32714	249.35013	2.69760	-141.00279	-102.67909	42.41650	494.90274	264.00125	45.90821	493.76852	66.54495	1112.74170	-440.64456	-17.04989	495.06564	-305.77472	141.36839	490.76581	-310.65518	20.00730	588.75922	633.54120	172.54819	575.14783	629.92676	
5259	52.580	-130.01456	7.33170	-113.44499	249.24231	2.57996	-141.04114	-102.31874	42.22889	494.85956	264.03183	43.71521	491.14157	67.93746	1112.79980	-440.02744	-16.95143	495.22498	-305.83307	141.91260	490.98712	-310.32944	19.91054	588.46564	633.70270	172.61766	574.92700	630.25238	
5260	52.590	-131.08661	8.65727	-114.76272	249.79803	2.56857	-141.09602	-101.83636	42.26771	494.66281	264.15549	41.01274	491.91855	68.87424	1113.01270	-439.68759	-16.74935	495.24655	-305.73898	142.28119	490.90189	-310.02295	19.61506	588.89404	633.94067	172.08760	575.22931	630.44525	
5261	52.600	-131.07272	7.32557	-114.53259	250.29285	2.75224	-140.88786	-101.41676	42.44625	494.36859	265.24240	41.57474	490.51437	69.94547	1113.20532	-439.68250	-16.01127	495.19684	-305.31281	142.77310	491.01669	-309.66693	19.41304	590.45270	634.19147	171.36902	576.66394	631.06152	
5262	52.610	-130.58627	5.26087	-114.17033	250.46774	2.96605	-140.75737	-101.19344	42.55443	494.48257	265.57443	43.26484	493.18677	70.90820	1113.51074	-440.24533	-15.39618	495.85806	-304.87930	143.27618	491.15518	-309.05264	18.51080	592.18750	634.46283	170.31213	578.29205	631.43817	
5263	52.620	-130.55736	5.80897	-113.62788	251.73933	6.09371	-141.12143	-101.74881	45.51548	494.21335	265.26126	42.45950	493.39188	71.64751	1113.41089	-441.27222	-14.89894	496.79156	-304.39780	144.15382	491.88956	-308.10614	18.08322	593.34613	634.96594	167.44757	578.95459	630.43939	
5264	52.630	-130.53381	5.81384	-113.97784	248.33931	9.18306	-138.49232	-98.93223	47.55110	495.50244	265.16824	40.47588	492.85492	72.91991	1112.81335	-441.62222	-13.87248	497.67755	-303.75952	144.80208	492.73395	-307.68344	17.80883	594.23737	635.72632	166.53401	579.58246	631.16168	
5265	52.640	-130.38654	5.41818	-114.11755	245.99133	14.03786	-136.24071	-95.33469	55.15800	495.21463	265.87970	41.41866	493.48825	74.24355	1112.49524	-441.88824	-13.34348	498.24551	-303.36923	145.39601	493.46567	-307.05811	17.20589	594.64807	635.88593	166.26273	579.98932	631.75970	
5266	52.650	-130.24161	5.23092	-114.03267	244.41324	23.53491	-135.76624	-92.05383	65.05867	495.54617	265.86041	40.61005	492.76959	75.66954	1113.05603	-441.70694	-12.60926	498.53909	-302.97144	146.27946	493.51251	-306.50531	17.03956	595.83710	636.31903	166.93721	581.01819	632.22272	
5267	52.660	-129.95917	5.15583	-113.88909	243.32666	33.76554	-135.69359	-89.72453	76.02711	495.13757	265.96362	40.87465	493.41946	77.09007	1113.88794	-440.83813	-12.28010	498.41776	-302.79727	146.96848	493.18411	-306.06335	16.98165	596.24487	636.65601	166.92012	582.24976	633.21503	
5268	52.670	-129.80426	5.12269	-113.72695	245.31592	46.16050	-135.12630	-89.74780	88.23555	495.20297	266.06317	39.92960	492.55847	77.92847	1114.87659	-439.73318	-11.77976	498.01849	-302.56760	147.47447	492.75049	-305.55881	17.34699	596.60010	636.95093	166.90479	581.98279	632.95721	
5269	52.680	-129.71724	5.03533	-113.65846	248.40009	58.60094	-134.28902	-91.07768	100.39752	495.52185	266.70169	40.39746	493.44638	78.98521	1115.10950	-438.53644	-11.10823	497.40482	-301.96600	147.77229	492.32523	-305.27457	17.94586	596.53943	637.29919	167.44702	582.01917	633.40771	
5270	52.690	-129.63768	5.00173	-113.62521	251.59042	70.73373	-133.45705	-93.92720	112.88442	496.01450	266.96829	39.95584	493.49829	79.39920	1114.98230	-437.84604	-10.78865	497.25876	-301.39349	148.12053	491.86401	-304.71655	18.50987	596.29321	637.74133	170.05275	581.99371	634.73737	
5271	52.700	-129.40530	5.00931	-113.41477	254.68649	82.50118	-132.00984	-96.02347	124.89251	496.93134	267.22845	39.37869	493.60965	79.85590	1114.25037	-437.54800	-10.19963	497.24295	-300.91278	148.60699	491.61102	-304.24121	19.17576	596.02032	638.34937	169.49664	581.72772	635.05438	
5272	52.710	-129.05347	5.09139	-113.24079	255.61444	93.43960	-131.45985	-96.89513	136.12410	497.60504	267.39142	39.23406	493.78723	80.44971	1113.34839	-437.58063	-9.36181	497.09830	-300.30063	149.52649	491.66513	-303.64435	20.62739	595.78571	639.03876	171.88168	581.00513	635.91199	
5273	52.720	-128.86507	5.21717	-113.25243	259.11069	104.38393	-129.70447	-96.82143	146.37465	498.46381	267.60498	38.99580	494.00748	80.94616	1112.28857	-437.92755	-8.71472	497.24146	-299.72827	150.15915	491.49857	-303.30377	21.37060	595.57404	639.64954	173.16483	580.62811	635.89374	
5274	52.730	-128.65019	5.26294	-113.00389	259.45065	113.39799	-129.04205	-96.58397	156.16005	499.48022	267.98447	38.63285	494.15369	82.11504	1111.17993	-437.96432	-8.09303	496.99438	-298.97842	150.86580	491.05127	-302.42740	22.46868	595.54138	640.21259	173.98303	580.45184	636.44501	
